<svg width="480" height="154" viewBox="0 0 480 154" fill="none" xmlns="http://www.w3.org/2000/svg">
<path fill-rule="evenodd" clip-rule="evenodd" d="M84.9782 13.9985C68.5732 13.9985 54.2284 20.4324 43.1019 28.2161C31.9931 35.9874 23.7719 45.3223 19.5067 51.7351C18.6056 53.09 18.4201 54.7987 19.0095 56.3154L40.847 112.506L27.8416 134.996L36.4983 140.002L50.7051 115.434C51.4645 114.121 51.5867 112.534 51.0371 111.12L29.3 55.188C33.2532 49.8403 40.0062 42.5858 48.8341 36.4101C58.8551 29.3998 71.2286 23.9985 84.9782 23.9985C97.9738 23.9985 107.422 27.3444 114.323 32.4549C121.256 37.5895 125.996 44.7867 129.062 53.09C134.689 68.3306 134.432 86.6707 132.151 100.291H88.4679L81.0363 80.0652C86.2437 76.3619 89.6699 70.3679 89.6699 63.4985C89.6699 52.0283 80.1171 42.9985 68.6699 42.9985C57.2228 42.9985 47.6699 52.0283 47.6699 63.4985C47.6699 74.9688 57.2228 83.9985 68.6699 83.9985C69.7133 83.9985 70.7409 83.9235 71.747 83.7785L80.285 107.015C81.008 108.983 82.8818 110.291 84.9782 110.291H136.296C138.66 110.291 140.701 108.634 141.188 106.321C144.326 91.4146 145.524 68.803 138.443 49.6262C134.871 39.952 129.12 30.9693 120.274 24.4186C111.396 17.8437 99.7757 13.9985 84.9782 13.9985ZM57.6699 63.4985C57.6699 57.848 62.444 52.9985 68.6699 52.9985C74.8959 52.9985 79.6699 57.848 79.6699 63.4985C79.6699 69.1491 74.8959 73.9985 68.6699 73.9985C62.444 73.9985 57.6699 69.1491 57.6699 63.4985Z" fill="url(#paint0_linear_5_1253)"/>
<path d="M190.691 97L173.531 58.18H182.351L197.051 93.22H194.291L208.931 58.18H217.631L200.651 97H190.691ZM231.394 54.1V60.94H222.334V54.1H231.394ZM222.934 67.18H230.734V97H222.934V67.18ZM238.509 67.18H246.309V97H238.509V67.18ZM257.769 73.6C255.529 73.6 253.589 74.04 251.949 74.92C250.309 75.76 248.989 76.8 247.989 78.04C246.989 79.28 246.289 80.48 245.889 81.64L245.829 78.34C245.869 77.86 246.029 77.16 246.309 76.24C246.589 75.28 247.009 74.26 247.569 73.18C248.129 72.06 248.869 71 249.789 70C250.709 68.96 251.829 68.12 253.149 67.48C254.469 66.84 256.009 66.52 257.769 66.52V73.6ZM261.031 83.92H269.131C269.291 85.28 269.911 86.52 270.991 87.64C272.111 88.72 273.571 89.58 275.371 90.22C277.171 90.82 279.191 91.12 281.431 91.12C283.471 91.12 285.151 90.9 286.471 90.46C287.791 90.02 288.771 89.4 289.411 88.6C290.051 87.8 290.371 86.84 290.371 85.72C290.371 84.64 289.971 83.82 289.171 83.26C288.371 82.66 287.111 82.18 285.391 81.82C283.671 81.42 281.411 81.02 278.611 80.62C276.411 80.3 274.331 79.86 272.371 79.3C270.411 78.7 268.671 77.94 267.151 77.02C265.671 76.1 264.491 74.98 263.611 73.66C262.771 72.3 262.351 70.7 262.351 68.86C262.351 66.58 262.991 64.58 264.271 62.86C265.591 61.14 267.531 59.8 270.091 58.84C272.651 57.88 275.791 57.4 279.511 57.4C285.111 57.4 289.411 58.6 292.411 61C295.451 63.36 296.931 66.62 296.851 70.78H289.051C288.891 68.42 287.891 66.72 286.051 65.68C284.251 64.64 281.971 64.12 279.211 64.12C276.651 64.12 274.531 64.5 272.851 65.26C271.211 66.02 270.391 67.32 270.391 69.16C270.391 69.88 270.591 70.52 270.991 71.08C271.391 71.6 272.071 72.06 273.031 72.46C273.991 72.86 275.291 73.24 276.931 73.6C278.571 73.96 280.611 74.32 283.051 74.68C285.331 75 287.391 75.44 289.231 76C291.111 76.52 292.711 77.22 294.031 78.1C295.391 78.94 296.431 80.02 297.151 81.34C297.871 82.66 298.231 84.28 298.231 86.2C298.231 88.56 297.611 90.62 296.371 92.38C295.171 94.1 293.291 95.44 290.731 96.4C288.211 97.36 284.931 97.84 280.891 97.84C278.011 97.84 275.471 97.54 273.271 96.94C271.071 96.3 269.171 95.46 267.571 94.42C265.971 93.38 264.671 92.24 263.671 91C262.671 89.76 261.951 88.52 261.511 87.28C261.111 86.04 260.951 84.92 261.031 83.92ZM302.151 67.18H325.311V73.24H302.151V67.18ZM309.831 59.02H317.631V97H309.831V59.02ZM357.037 87.1H364.597C364.277 89.14 363.417 90.96 362.017 92.56C360.657 94.16 358.797 95.42 356.437 96.34C354.077 97.26 351.197 97.72 347.797 97.72C343.997 97.72 340.637 97.12 337.717 95.92C334.797 94.68 332.517 92.9 330.877 90.58C329.237 88.26 328.417 85.46 328.417 82.18C328.417 78.9 329.217 76.1 330.817 73.78C332.417 71.42 334.637 69.62 337.477 68.38C340.357 67.14 343.717 66.52 347.557 66.52C351.477 66.52 354.737 67.14 357.337 68.38C359.937 69.62 361.857 71.5 363.097 74.02C364.377 76.5 364.917 79.68 364.717 83.56H336.277C336.477 85.08 337.037 86.46 337.957 87.7C338.917 88.94 340.197 89.92 341.797 90.64C343.437 91.36 345.377 91.72 347.617 91.72C350.097 91.72 352.157 91.3 353.797 90.46C355.477 89.58 356.557 88.46 357.037 87.1ZM347.197 72.46C344.317 72.46 341.977 73.1 340.177 74.38C338.377 75.62 337.217 77.16 336.697 79H356.977C356.777 77 355.817 75.42 354.097 74.26C352.417 73.06 350.117 72.46 347.197 72.46ZM370.521 67.18H378.321V97H370.521V67.18ZM392.181 66.52C394.021 66.52 395.721 66.76 397.281 67.24C398.841 67.72 400.201 68.46 401.361 69.46C402.521 70.46 403.421 71.74 404.061 73.3C404.701 74.82 405.021 76.64 405.021 78.76V97H397.221V80.14C397.221 77.62 396.601 75.78 395.361 74.62C394.161 73.42 392.181 72.82 389.421 72.82C387.341 72.82 385.461 73.22 383.781 74.02C382.101 74.82 380.741 75.84 379.701 77.08C378.661 78.28 378.061 79.54 377.901 80.86L377.841 77.8C378.041 76.4 378.501 75.04 379.221 73.72C379.941 72.4 380.901 71.2 382.101 70.12C383.341 69 384.801 68.12 386.481 67.48C388.161 66.84 390.061 66.52 392.181 66.52ZM429.702 97.72C425.942 97.72 422.622 97.12 419.742 95.92C416.902 94.72 414.682 92.98 413.082 90.7C411.482 88.38 410.682 85.54 410.682 82.18C410.682 78.82 411.482 75.98 413.082 73.66C414.682 71.3 416.902 69.52 419.742 68.32C422.622 67.12 425.942 66.52 429.702 66.52C433.462 66.52 436.742 67.12 439.542 68.32C442.382 69.52 444.602 71.3 446.202 73.66C447.802 75.98 448.602 78.82 448.602 82.18C448.602 85.54 447.802 88.38 446.202 90.7C444.602 92.98 442.382 94.72 439.542 95.92C436.742 97.12 433.462 97.72 429.702 97.72ZM429.702 91.72C431.782 91.72 433.642 91.36 435.282 90.64C436.962 89.88 438.282 88.8 439.242 87.4C440.202 85.96 440.682 84.22 440.682 82.18C440.682 80.14 440.202 78.4 439.242 76.96C438.282 75.48 436.982 74.36 435.342 73.6C433.702 72.84 431.822 72.46 429.702 72.46C427.622 72.46 425.742 72.84 424.062 73.6C422.382 74.36 421.042 75.46 420.042 76.9C419.082 78.34 418.602 80.1 418.602 82.18C418.602 84.22 419.082 85.96 420.042 87.4C421.002 88.8 422.322 89.88 424.002 90.64C425.682 91.36 427.582 91.72 429.702 91.72Z" fill="black"/>
<defs>
<linearGradient id="paint0_linear_5_1253" x1="40" y1="3" x2="114.5" y2="156.5" gradientUnits="userSpaceOnUse">
<stop offset="0.226536" stop-color="#B09DFF"/>
<stop offset="0.857016" stop-color="#4A68FF"/>
</linearGradient>
</defs>
</svg>
